<svg width="447" height="77" viewBox="0 0 447 77" fill="none" xmlns="http://www.w3.org/2000/svg">
<path d="M21.853 44.6776C15.5804 42.25 10.1172 40.1257 10.1172 35.169C10.1172 29.5045 15.2769 27.4813 20.1331 27.4813C28.4291 27.4813 32.8807 32.1344 32.8807 32.1344L33.2855 32.6402L37.0287 26.3686L36.8264 26.0653C36.6242 25.8628 31.4644 20.1983 20.3355 20.1983C11.4324 20.1983 1.92225 24.8515 1.92225 35.169C1.92225 44.8798 10.7242 48.4202 18.5144 51.455C24.787 53.9838 30.2504 56.1081 30.2504 60.9634C30.2504 66.4259 25.1918 68.8535 20.1331 68.8535C10.623 68.8535 4.85623 62.683 4.85623 62.683L4.45154 62.2786L0 68.1455L0.202343 68.4488C0.303515 68.5499 1.92225 70.472 5.26091 72.3939C8.29606 74.2146 13.2535 76.2378 19.9308 76.2378C30.5538 76.2378 38.3441 69.8651 38.3441 61.0645C38.4452 51.1514 29.6431 47.7122 21.853 44.6776Z" fill="white"/>
<path d="M95.2023 47.9147C95.2023 59.6485 86.4005 68.8535 75.1703 68.8535C63.9404 68.8535 55.1383 59.6485 55.1383 47.9147C55.1383 36.5853 63.9404 27.5825 75.1703 27.5825C86.4005 27.5825 95.2023 36.5853 95.2023 47.9147ZM75.1703 20.1983C59.2865 20.1983 46.9435 32.3369 46.9435 47.9147C46.9435 63.6946 59.3877 76.1367 75.1703 76.1367C90.9532 76.1367 103.397 63.6946 103.397 47.9147C103.397 32.3369 90.9532 20.1983 75.1703 20.1983Z" fill="white"/>
<path d="M138.302 0.473795C138.201 0.473795 136.987 0.271484 134.964 0.271484C129.399 0.271484 116.348 2.19342 116.348 20.1989V22.222H109.165V29.1006H116.348V74.9234H124.341V29.1006H137.797V22.222H124.341V20.1989C124.341 15.4446 125.757 7.5546 135.672 7.5546C137.088 7.5546 138.1 7.75692 138.1 7.75692L138.707 7.85806V0.574948L138.302 0.473795Z" fill="white"/>
<path d="M176.241 68.4486L175.634 68.5497C175.634 68.5497 174.723 68.7522 173.307 68.7522C168.957 68.7522 161.774 66.9314 161.774 55.0963V29.2007H175.128V22.2211H161.774V6.84563H153.68V22.2211H146.598V29.2007H153.579V55.8043C153.579 73.5064 165.517 76.1365 172.7 76.1365C174.622 76.1365 175.836 75.934 175.836 75.934L176.241 75.8329V68.4486Z" fill="white"/>
<path d="M192.53 59.042C192.53 59.042 198.398 64.909 207.098 64.909C210.842 64.909 214.079 63.1893 214.079 60.0534C214.079 52.0624 188.078 53.1749 188.078 35.9789C188.078 26.0655 196.981 20.2998 208.515 20.2998C220.554 20.2998 226.422 26.3691 226.422 26.3691L221.465 36.1811C221.465 36.1811 216.507 31.528 208.413 31.528C204.974 31.528 201.635 33.0454 201.635 36.3833C201.635 43.9701 227.636 42.9585 227.636 60.1548C227.636 69.0562 219.846 76.2383 207.199 76.2383C193.946 76.2383 186.459 68.3482 186.459 68.3482L192.53 59.042Z" fill="white"/>
<path d="M273.772 41.6433C273.569 34.3603 269.015 30.5164 263.148 30.5164C256.369 30.5164 251.613 34.6637 250.401 41.6433H273.772ZM263.552 20.2998C278.93 20.2998 287.226 31.528 287.226 45.6895C287.226 47.2069 286.923 50.8484 286.923 50.8484H249.994C250.805 60.1548 258.09 65.0101 265.981 65.0101C274.58 65.0101 281.359 59.1432 281.359 59.1432L286.519 68.6516C286.519 68.6516 278.323 76.3394 265.069 76.3394C247.365 76.3394 236.337 63.594 236.337 48.4207C236.337 31.8313 247.568 20.2998 263.552 20.2998Z" fill="white"/>
<path d="M300.581 21.5142H313.328V30.7193C313.328 32.7423 313.125 34.4619 313.125 34.4619H313.328C315.755 26.7743 322.13 20.705 330.324 20.705C331.539 20.705 332.753 20.9073 332.753 20.9073V33.9561C332.753 33.9561 331.335 33.7539 329.615 33.7539C323.952 33.7539 317.577 36.9907 315.048 44.9819C314.238 47.612 313.935 50.5455 313.935 53.6812V74.8225H300.682L300.581 21.5142Z" fill="white"/>
<path d="M338.519 21.5129H352.582L363.711 54.5902C364.723 57.7261 365.533 61.2665 365.632 61.2665H365.836C365.937 61.2665 366.646 57.7261 367.759 54.5902L378.888 21.5129H392.949L373.727 74.9224H358.045L338.519 21.5129Z" fill="white"/>
<path d="M433.519 41.6433C433.319 34.3603 428.765 30.5164 422.896 30.5164C416.119 30.5164 411.363 34.6637 410.148 41.6433H433.519ZM423.302 20.2998C438.68 20.2998 446.976 31.528 446.976 45.6895C446.976 47.2069 446.673 50.8484 446.673 50.8484H409.744C410.555 60.1548 417.84 65.0101 425.831 65.0101C434.431 65.0101 441.208 59.1432 441.208 59.1432L446.369 68.6516C446.369 68.6516 438.174 76.3394 424.921 76.3394C407.216 76.3394 396.189 63.594 396.189 48.4207C396.087 31.8313 407.318 20.2998 423.302 20.2998Z" fill="white"/>
</svg>
