<svg xmlns="http://www.w3.org/2000/svg" version="1.1" xmlns:xlink="http://www.w3.org/1999/xlink" width="776" height="895"><svg width="776" height="895" viewBox="0 0 776 895" fill="none" xmlns="http://www.w3.org/2000/svg">
<g clip-path="url(#clip0_179_102)">
<path d="M26 239L390 29H400L752 239L762 667L390 881L26 667V239Z" fill="black" stroke="black"></path>
<path d="M387.55 0L0 223.75V671.25L387.55 895L775.1 671.25V223.75L387.55 0ZM740.1 651.04L387.55 854.58L35 651.04V243.96L387.55 40.41L740.1 243.95V651.04Z" fill="#FFAE00"></path>
<path d="M294.03 531.58L239.55 569.5V682.5L387.55 766.5L535.55 682.5V569.5L481.07 531.58V473.52L387.91 404L294.03 473.52V531.58Z" fill="#FFAE00"></path>
<path d="M495.55 508.529L553.15 553.499L610.75 508.529V418.589L553.15 373.619L495.55 418.589V508.529Z" fill="#FFAE00"></path>
<path d="M518.75 381.529V291.589L461.15 246.619L403.55 291.589V381.529L461.15 426.499L518.75 381.529Z" fill="#FFAE00"></path>
<path d="M279.55 418.589L221.95 373.619L164.34 418.589V508.529L221.95 553.499L279.55 508.529V418.589Z" fill="#FFAE00"></path>
<path d="M371.55 381.529V291.589L313.95 246.619L256.34 291.589V381.529L313.95 426.499L371.55 381.529Z" fill="#FFAE00"></path>
<path d="M717.63 256.749L387.63 66.2191V66.1191L387.54 66.1691L387.45 66.1191V66.2191L57.46 256.749V638.249L387.46 828.779V828.879L387.55 828.829L387.64 828.879V828.779L717.64 638.249V256.749H717.63ZM193.85 595.999C187.51 595.999 182.35 590.839 182.35 584.499C182.35 578.159 187.51 572.999 193.85 572.999C200.19 572.999 205.35 578.159 205.35 584.499C205.35 590.839 200.19 595.999 193.85 595.999ZM581.24 595.999C574.9 595.999 569.74 590.839 569.74 584.499C569.74 578.159 574.9 572.999 581.24 572.999C587.58 572.999 592.74 578.159 592.74 584.499C592.74 590.839 587.58 595.999 581.24 595.999ZM691.63 623.239L596.61 676.329L596.05 609.209C604.23 604.319 609.71 595.379 609.71 585.159C609.71 583.099 609.48 581.099 609.06 579.169L668.11 531.989L668.75 293.909L471.74 180.479C471.46 165.259 459.04 152.999 443.75 152.999C428.46 152.999 415.75 165.539 415.75 180.999C415.75 196.459 428.29 208.999 443.75 208.999C448.62 208.999 453.2 207.749 457.19 205.569L639.25 310.679V334.859L607.7 316.639C607.42 301.419 595 289.159 579.71 289.159C564.42 289.159 551.71 301.699 551.71 317.159C551.71 332.619 564.25 345.159 579.71 345.159C584.58 345.159 589.16 343.909 593.15 341.729L639.25 368.339V517.639L587.77 557.829C585.82 557.399 583.79 557.169 581.71 557.169C566.25 557.169 553.71 569.709 553.71 585.169C553.71 595.039 558.82 603.699 566.53 608.689V693.699L387.55 798.799L208.57 693.699V608.689C216.28 603.699 221.39 595.029 221.39 585.169C221.39 569.709 208.85 557.169 193.39 557.169C191.31 557.169 189.28 557.399 187.33 557.829L135.85 517.639V368.339L181.95 341.729C185.94 343.919 190.52 345.159 195.39 345.159C210.85 345.159 223.39 332.619 223.39 317.159C223.39 301.699 210.85 289.159 195.39 289.159C179.93 289.159 167.68 301.419 167.4 316.639L135.85 334.859V310.679L317.91 205.569C321.9 207.759 326.48 208.999 331.35 208.999C346.81 208.999 359.35 196.459 359.35 180.999C359.35 165.539 346.81 152.999 331.35 152.999C315.89 152.999 303.64 165.259 303.36 180.479L106.35 293.909L106.99 531.989L166.04 579.169C165.62 581.099 165.39 583.099 165.39 585.159C165.39 595.379 170.87 604.319 179.05 609.209L178.49 676.329L83.47 623.239V271.759L387.55 96.1991L691.64 271.759V623.239H691.63ZM455.74 181.499C455.74 187.839 450.58 192.999 444.24 192.999C437.9 192.999 432.74 187.839 432.74 181.499C432.74 175.159 437.9 169.999 444.24 169.999C450.58 169.999 455.74 175.159 455.74 181.499ZM590.74 316.499C590.74 322.839 585.58 327.999 579.24 327.999C572.9 327.999 567.74 322.839 567.74 316.499C567.74 310.159 572.9 304.999 579.24 304.999C585.58 304.999 590.74 310.159 590.74 316.499ZM184.35 316.499C184.35 310.159 189.51 304.999 195.85 304.999C202.19 304.999 207.35 310.159 207.35 316.499C207.35 322.839 202.19 327.999 195.85 327.999C189.51 327.999 184.35 322.839 184.35 316.499ZM319.35 181.499C319.35 175.159 324.51 169.999 330.85 169.999C337.19 169.999 342.35 175.159 342.35 181.499C342.35 187.839 337.19 192.999 330.85 192.999C324.51 192.999 319.35 187.839 319.35 181.499Z" fill="#FFAE00"></path>
<path d="M331.18 202C342.778 202 352.18 192.598 352.18 181C352.18 169.402 342.778 160 331.18 160C319.582 160 310.18 169.402 310.18 181C310.18 192.598 319.582 202 331.18 202Z" fill="#FFAE00"></path>
<path d="M444.18 202C455.778 202 465.18 192.598 465.18 181C465.18 169.402 455.778 160 444.18 160C432.582 160 423.18 169.402 423.18 181C423.18 192.598 432.582 202 444.18 202Z" fill="#FFAE00"></path>
<path d="M579.18 337C590.778 337 600.18 327.598 600.18 316C600.18 304.402 590.778 295 579.18 295C567.582 295 558.18 304.402 558.18 316C558.18 327.598 567.582 337 579.18 337Z" fill="#FFAE00"></path>
<path d="M579.18 606C590.778 606 600.18 596.598 600.18 585C600.18 573.402 590.778 564 579.18 564C567.582 564 558.18 573.402 558.18 585C558.18 596.598 567.582 606 579.18 606Z" fill="#FFAE00"></path>
<path d="M194.18 605C205.778 605 215.18 595.598 215.18 584C215.18 572.402 205.778 563 194.18 563C182.582 563 173.18 572.402 173.18 584C173.18 595.598 182.582 605 194.18 605Z" fill="#FFAE00"></path>
<path d="M196.18 337C207.778 337 217.18 327.598 217.18 316C217.18 304.402 207.778 295 196.18 295C184.582 295 175.18 304.402 175.18 316C175.18 327.598 184.582 337 196.18 337Z" fill="#FFAE00"></path>
</g>
<defs>
<clipPath id="SvgjsClipPath1001">
<rect width="775.09" height="895" fill="white"></rect>
</clipPath>
</defs>
</svg><style>@media (prefers-color-scheme: light) { :root { filter: none; } }
@media (prefers-color-scheme: dark) { :root { filter: none; } }
</style></svg>